<svg width="112" height="96" viewBox="0 0 112 96" fill="none" xmlns="http://www.w3.org/2000/svg">
<g clip-path="url(#clip0_38_6861)">
<path d="M56.1539 12.0115L74.5034 1.37418L111.114 22.6489L92.7642 33.3749L56.1539 12.0115Z" fill="#414545"/>
<path d="M56.1539 11.8462L18.7693 33.7692L56.1539 55.6923L93.5385 33.8606L56.1539 11.8462Z" fill="#2A2D2D"/>
<path d="M56.1539 12.0115L37.8045 1.37418L1.19421 22.6489L19.5437 33.3749L56.1539 12.0115Z" fill="#414545"/>
<path d="M56.1539 54.561V94.4511L19.8096 73.265V54.6496L56.1539 54.561Z" fill="#2A2D2D"/>
<path d="M92.4982 53.7632V72.2899L56.1539 93.5646V53.6745L92.4982 53.7632Z" fill="#414545"/>
<path d="M56.1539 54.6496L37.8045 65.3756L1.19421 44.0123L19.5437 33.3749L56.1539 54.6496Z" fill="#414545"/>
<path d="M92.7642 33.3749L111.114 44.0123L74.5034 65.3756L56.1539 54.6496L92.7642 33.3749Z" fill="#414545"/>
<path d="M92.7642 34.2614C92.5869 34.2614 92.4983 34.2614 92.321 34.1727L59.6111 15.1141C59.1679 14.8482 59.0792 14.3163 59.2565 13.8731C59.5225 13.4299 60.0543 13.3412 60.4975 13.5185L92.7642 32.3112L109.341 22.6489L74.5034 2.34927L56.5972 12.7207C56.154 12.9866 55.6221 12.8093 55.3561 12.3661C55.0902 11.9229 55.2675 11.391 55.7107 11.1251L74.0602 0.487734C74.3261 0.310444 74.6807 0.310444 74.9466 0.487734L111.557 21.7625C111.823 21.9398 112 22.2057 112 22.5603C112 22.9148 111.823 23.1808 111.557 23.3581L93.2074 34.0841C93.1188 34.1727 92.9415 34.2614 92.7642 34.2614Z" fill="#202525"/>
<path d="M19.5436 34.2614C19.3664 34.2614 19.2777 34.2614 19.1004 34.1727L0.750963 23.4467C0.485029 23.2694 0.307739 23.0035 0.307739 22.6489C0.307739 22.2943 0.485029 22.0284 0.750963 21.8511L37.3612 0.576387C37.6272 0.399098 37.9817 0.399098 38.2477 0.576387L56.5971 11.2137C56.8631 11.391 57.0403 11.657 57.0403 12.0116C57.0403 12.3661 56.8631 12.6321 56.5971 12.8094L24.4191 31.602C23.9759 31.868 23.444 31.6907 23.1781 31.2474C22.9121 30.8042 23.0894 30.2724 23.5326 30.0064L54.381 12.0116L37.8044 2.43793L2.96708 22.7376L19.9869 32.6658C20.4301 32.9317 20.5187 33.4636 20.3414 33.9068C20.0755 34.0841 19.8096 34.2614 19.5436 34.2614Z" fill="#202525"/>
<path d="M55.7106 95.3375C55.5333 95.3375 55.4447 95.3375 55.2674 95.2489L18.9231 74.0628C18.6571 73.8855 18.4799 73.6196 18.4799 73.265V55.2701C18.4799 54.7383 18.8344 54.3837 19.3663 54.3837C19.8982 54.3837 20.2528 54.7383 20.2528 55.2701V72.7331L54.8242 92.8555V56.1566C54.8242 55.6247 55.1788 55.2701 55.7106 55.2701C56.2425 55.2701 56.5971 55.6247 56.5971 56.1566V94.4511C56.5971 94.8057 56.4198 95.0716 56.1539 95.2489C55.9766 95.2489 55.8879 95.3375 55.7106 95.3375Z" fill="#202525"/>
<path d="M55.7107 95.3375C55.4448 95.3375 55.0902 95.1602 54.9129 94.8943C54.647 94.4511 54.8243 93.9192 55.2675 93.6533L91.1686 72.6445V56.1566C91.1686 55.6247 91.5232 55.2701 92.055 55.2701C92.5869 55.2701 92.9415 55.6247 92.9415 56.1566V73.1764C92.9415 73.5309 92.7642 73.7969 92.4983 73.9742L56.1539 95.2489C55.9766 95.2489 55.888 95.3375 55.7107 95.3375Z" fill="#202525"/>
<path d="M37.8044 66.2621C37.6272 66.2621 37.5385 66.2621 37.3612 66.1735L0.750963 44.8101C0.485029 44.6328 0.307739 44.3669 0.307739 44.0123C0.307739 43.6577 0.485029 43.3918 0.750963 43.2145L19.1004 32.5771C19.3663 32.3998 19.7209 32.3998 19.9869 32.5771L51.7217 51.0152C52.1649 51.2811 52.2535 51.813 52.0762 52.2562C51.8103 52.6995 51.2784 52.7881 50.8352 52.6108L19.5436 34.4387L2.96708 44.0123L37.8044 64.3119L55.622 53.8518C56.0652 53.5859 56.5971 53.7632 56.863 54.2064C57.129 54.6497 56.9517 55.1815 56.5085 55.4474L38.159 66.1735C38.159 66.1735 37.9817 66.2621 37.8044 66.2621Z" fill="#202525"/>
<path d="M74.5034 66.2621C74.3261 66.2621 74.2374 66.2621 74.0601 66.1734L55.7107 55.4474C55.2675 55.1815 55.1788 54.6496 55.3561 54.2064C55.622 53.7632 56.1539 53.6745 56.5971 53.8518L74.4147 64.3119L109.252 44.0123L92.2323 34.1727C91.7891 33.9068 91.7004 33.3749 91.8777 32.9317C92.1437 32.4884 92.6755 32.3998 93.1187 32.5771L111.468 43.2145C111.734 43.3917 111.911 43.6577 111.911 44.0123C111.911 44.3668 111.734 44.6328 111.468 44.8101L74.8579 66.1734C74.7693 66.1734 74.592 66.2621 74.5034 66.2621Z" fill="#202525"/>
<path d="M56.154 55.5361C55.888 55.5361 55.5334 55.3588 55.3561 55.0929C55.0902 54.6496 55.2675 54.1178 55.7107 53.8518L88.2433 34.9705C88.6865 34.7046 89.2184 34.8819 89.4844 35.3251C89.7503 35.7683 89.573 36.3002 89.1298 36.5661L56.5972 55.4474C56.4199 55.4474 56.3312 55.5361 56.154 55.5361Z" fill="#202525"/>
<path d="M55.7107 51.7244C55.1788 51.7244 54.8242 51.3698 54.8242 50.8379V12.7207C54.8242 12.1888 55.1788 11.8343 55.7107 11.8343C56.2425 11.8343 56.5971 12.1888 56.5971 12.7207V50.8379C56.5971 51.3698 56.2425 51.7244 55.7107 51.7244Z" fill="#202525"/>
</g>
<defs>
<clipPath id="clip0_38_6861">
<rect width="112" height="96" fill="white"/>
</clipPath>
</defs>
</svg>
