<svg width="32" height="32" viewBox="0 0 32 32" fill="none" xmlns="http://www.w3.org/2000/svg">
<g clip-path="url(#clip0_38_4057)">
<path d="M16 -3.05176e-05C24.837 -3.05176e-05 32 7.16297 32 16C32 24.837 24.837 32 16 32C7.163 32 0 24.837 0 16C0 7.16297 7.163 -3.05176e-05 16 -3.05176e-05ZM13.794 7.01997C12.444 6.90997 11.401 7.24997 10.861 8.02497L7.146 13.332C6.606 14.106 6.624 15.231 7.164 16.502C7.911 18.253 9.638 20.326 12.013 22.059C14.379 23.8 16.853 24.814 18.715 24.979C20.055 25.09 21.108 24.749 21.648 23.975L25.354 18.668C25.894 17.894 25.876 16.769 25.336 15.498C24.598 13.747 22.862 11.674 20.496 9.93197C18.121 8.19997 15.656 7.17697 13.794 7.01997ZM21.582 19.468C22.287 19.593 22.913 19.616 23.427 19.532C23.4609 19.5286 23.4949 19.5383 23.5219 19.5591C23.5489 19.5798 23.567 19.6101 23.5725 19.6438C23.578 19.6774 23.5704 19.7119 23.5514 19.7402C23.5324 19.7684 23.5032 19.7884 23.47 19.796C22.923 19.886 22.268 19.861 21.536 19.732C21.5014 19.7255 21.4707 19.7056 21.4506 19.6766C21.4305 19.6477 21.4226 19.612 21.4287 19.5773C21.4347 19.5425 21.4542 19.5116 21.4829 19.4912C21.5116 19.4707 21.5472 19.4624 21.582 19.468ZM20.512 19.224L20.555 19.229C20.728 19.278 20.898 19.322 21.065 19.361C21.0985 19.37 21.1271 19.3917 21.145 19.4214C21.1628 19.4511 21.1684 19.4866 21.1606 19.5204C21.1529 19.5541 21.1323 19.5836 21.1033 19.6025C21.0743 19.6215 21.039 19.6285 21.005 19.622C20.833 19.582 20.659 19.537 20.483 19.487C20.4498 19.4765 20.422 19.4536 20.4054 19.423C20.3888 19.3925 20.3848 19.3566 20.3941 19.3231C20.4035 19.2896 20.4255 19.2611 20.4555 19.2435C20.4855 19.2259 20.5212 19.2207 20.555 19.229L20.512 19.224ZM11.375 8.40297C11.807 7.78497 12.662 7.58297 13.741 7.67497C15.513 7.82197 17.861 8.80797 20.119 10.467C22.386 12.125 24.051 14.088 24.761 15.756C25.184 16.769 25.274 17.672 24.842 18.281L24.815 18.327C24.375 18.907 23.538 19.101 22.476 19.017C20.704 18.87 18.356 17.884 16.098 16.226C13.84 14.567 12.176 12.604 11.465 10.927C11.042 9.93197 10.952 9.05697 11.357 8.43897L11.375 8.40297ZM10.631 10.851C10.701 10.83 10.776 10.871 10.796 10.941C11.243 12.473 12.41 13.956 14.253 15.639L14.46 15.827C14.566 15.922 14.673 16.017 14.782 16.112C14.7954 16.1235 14.8064 16.1377 14.8143 16.1535C14.8222 16.1693 14.8269 16.1866 14.8281 16.2043C14.8293 16.2219 14.827 16.2397 14.8213 16.2564C14.8157 16.2732 14.8067 16.2887 14.795 16.302C14.7835 16.3151 14.7694 16.3259 14.7537 16.3336C14.738 16.3413 14.721 16.3459 14.7035 16.347C14.686 16.3481 14.6685 16.3458 14.652 16.3401C14.6354 16.3344 14.6201 16.3256 14.607 16.314C14.464 16.1885 14.322 16.0618 14.181 15.934L13.976 15.748C12.156 14.07 10.996 12.581 10.541 11.017C10.5311 10.983 10.5349 10.9465 10.5518 10.9154C10.5687 10.8843 10.5971 10.8612 10.631 10.851ZM15.882 10.568C15.378 10.531 14.974 10.614 14.776 10.9C14.578 11.185 14.632 11.6 14.83 12.07C15.18 12.908 16.017 13.885 17.15 14.715C18.284 15.544 19.454 16.041 20.344 16.115C20.839 16.161 21.244 16.078 21.442 15.793C21.649 15.507 21.595 15.093 21.388 14.623C21.037 13.783 20.2 12.798 19.067 11.969C17.942 11.139 16.764 10.651 15.882 10.568ZM10.485 9.78997C10.5025 9.7893 10.5199 9.79208 10.5363 9.79815C10.5527 9.80423 10.5677 9.81347 10.5805 9.82536C10.5934 9.83725 10.6037 9.85155 10.611 9.86744C10.6183 9.88333 10.6224 9.9005 10.623 9.91797C10.63 10.088 10.649 10.26 10.678 10.433C10.6816 10.4505 10.6817 10.4685 10.6782 10.486C10.6748 10.5035 10.6678 10.5202 10.6577 10.5349C10.6477 10.5497 10.6348 10.5623 10.6197 10.5719C10.6047 10.5816 10.5879 10.5881 10.5703 10.5911C10.5527 10.5942 10.5347 10.5936 10.5173 10.5895C10.4999 10.5854 10.4835 10.5779 10.4691 10.5673C10.4547 10.5567 10.4426 10.5434 10.4335 10.528C10.4243 10.5127 10.4184 10.4957 10.416 10.478C10.3846 10.2964 10.3648 10.113 10.357 9.92897C10.3562 9.91137 10.3589 9.89378 10.3649 9.87721C10.3709 9.86065 10.3801 9.84543 10.392 9.83242C10.4039 9.81942 10.4182 9.80889 10.4342 9.80143C10.4501 9.79397 10.4674 9.78974 10.485 9.78897V9.78997Z" fill="#202525"/>
</g>
<defs>
<clipPath id="clip0_38_4057">
<rect width="32" height="32" fill="white"/>
</clipPath>
</defs>
</svg>
