<svg width="150" height="127" viewBox="0 0 150 127" fill="none" xmlns="http://www.w3.org/2000/svg">
<path d="M42.1621 1.80876C42.7364 2.94087 41.7657 4.59423 39.983 5.51632C38.2105 6.45761 36.3059 6.30522 35.7303 5.18335C35.1548 4.05251 36.1268 2.40812 37.8992 1.47579C39.6717 0.53577 41.5865 0.677918 42.1621 1.80876Z" fill="#FFFFFE"/>
<path d="M132.814 1.80876C133.389 2.94087 132.419 4.59423 130.636 5.51632C128.863 6.45761 126.958 6.30522 126.383 5.18335C125.808 4.05251 126.778 2.40812 128.552 1.47579C130.325 0.53577 132.238 0.677918 132.814 1.80876Z" fill="#FFFFFE"/>
<path d="M12.495 85.5868C12.495 85.5868 5.61091 84.3701 3.80921 82.2685C2.01641 80.1593 2.08375 77.7542 2.08375 77.7542L2.05707 73.8878C2.08375 73.9249 2.1117 73.9621 2.13966 73.9992C5.09124 77.8963 12.5699 78.5059 12.5699 78.5059H34.7024C34.7024 78.5059 42.4822 78.2024 46.3296 73.9992C48.5836 71.5288 47.9229 67.7841 47.9229 67.7841L46.5087 50.1517C46.5087 50.1517 46.6218 45.695 43.9726 43.9161C41.9918 42.574 38.5332 42.4049 36.9107 42.4049C36.3618 42.4049 36.0225 42.4241 36.0225 42.4241H10.9754C10.9754 42.4241 6.56259 42.4344 4.49788 44.2017C3.30479 45.2327 2.6606 46.7733 2.33025 47.885L2.60724 30.0618C2.79782 30.9262 3.2222 32.1967 4.15863 33.4325C7.10005 37.3296 14.5877 37.9379 14.5877 37.9379H36.7201C36.7201 37.9379 44.4999 37.6434 48.3473 33.4325C49.5391 32.1275 49.9139 30.4678 50.0016 29.1935H50.1871V73.9813L50.3091 75.9484C50.3091 75.9484 50.6204 77.612 50.1871 79.437V80.1593H49.98C49.7157 80.9008 49.3193 81.6231 48.6865 82.2685C46.5278 84.4457 39.7187 85.2922 39.7187 85.2922L12.495 85.5868Z" fill="url(#paint0_linear_38_6137)"/>
<path d="M36.7201 37.9379H14.5877C14.5877 37.9379 7.10009 37.3296 4.15866 33.4325C3.22224 32.1967 2.79786 30.9262 2.60727 30.0618C2.46369 29.4125 2.45099 28.9937 2.45099 28.9937L4.03542 8.70009C4.03542 8.70009 4.4509 5.42026 6.51561 3.64397C6.61091 3.562 6.71001 3.48388 6.8142 3.4096C8.97675 1.86511 12.9944 1.85615 12.9944 1.85615H38.0314C38.0314 1.85615 38.2169 1.84591 38.5358 1.84079C38.6375 1.83951 38.7531 1.83823 38.8789 1.83823C40.4849 1.83823 43.9867 2.00471 45.9904 3.35838C48.6396 5.13596 48.5176 9.594 48.5176 9.594L49.9318 27.2263C49.9318 27.2263 50.0817 28.0562 50.0016 29.1935C49.914 30.4678 49.5391 32.1275 48.3473 33.4325C44.5 37.6434 36.7201 37.9379 36.7201 37.9379ZM14.0972 3.36862C14.0972 3.36862 10.0517 3.36863 8.15722 5.00277C6.27039 6.62923 5.89302 9.64137 5.89302 9.64137L4.4509 28.233C4.4509 28.233 4.49791 30.3153 6.0061 32.3119C8.70357 35.876 15.5597 36.4357 15.5597 36.4357H35.8523C35.8523 36.4357 42.9727 36.1604 46.4897 32.3119C48.5646 30.049 47.9522 26.6078 47.9522 26.6078L46.66 10.4584C46.66 10.4584 46.7629 6.37182 44.3399 4.72743C42.5217 3.50566 39.349 3.3507 37.8624 3.3507C37.3605 3.3507 37.0505 3.36862 37.0505 3.36862H14.0972Z" fill="url(#paint1_linear_38_6137)"/>
<path d="M35.8523 36.4357H15.5597C15.5597 36.4357 8.70354 35.876 6.00607 32.3119C4.49788 30.3153 4.45087 28.233 4.45087 28.233L5.89299 9.64137C5.89299 9.64137 6.27035 6.62923 8.15718 5.00277C10.0516 3.36863 14.0972 3.36863 14.0972 3.36863H37.0504C37.0504 3.36863 37.3605 3.35071 37.8624 3.35071C39.3489 3.35071 42.5216 3.50567 44.3398 4.72743C46.7629 6.37182 46.6599 10.4584 46.6599 10.4584L47.9521 26.6078C47.9521 26.6078 48.5646 30.049 46.4897 32.3119C42.9727 36.1603 35.8523 36.4357 35.8523 36.4357ZM35.231 25.9431L34.1459 10.744H18.36L17.275 25.9431H35.231Z" fill="url(#paint2_linear_38_6137)"/>
<path d="M13.0795 18.3769C14.0502 20.1058 13.9091 22.046 12.7491 22.6927C11.5992 23.3472 9.88137 22.4738 8.91064 20.7333C7.93991 18.9852 8.08094 17.0552 9.23083 16.3995C10.3909 15.7438 12.1075 16.6275 13.0795 18.3769Z" fill="#FFFFFE"/>
<path d="M13.0693 28.3008C12.8152 30.2769 11.551 31.7497 10.241 31.5883C8.92975 31.4078 8.0721 29.6686 8.32622 27.6912C8.57144 25.7049 9.83441 24.2321 11.1546 24.4037C12.4658 24.5728 13.3146 26.3235 13.0693 28.3008Z" fill="#FFFFFE"/>
<path d="M20.2456 24.6791C19.9915 26.6641 18.7272 28.1382 17.4173 27.9576C16.106 27.7963 15.2484 26.0468 15.5025 24.0605C15.7566 22.0934 17.0208 20.6206 18.3308 20.782C19.6421 20.9523 20.4997 22.6928 20.2456 24.6791Z" fill="#FFFFFE"/>
<path d="M16.9637 13.5282C16.7095 15.5056 15.4364 16.9694 14.1252 16.7991C12.8152 16.6364 11.9563 14.8883 12.2116 12.902C12.4658 10.9246 13.73 9.46079 15.04 9.63112C16.3512 9.79249 17.2102 11.5432 16.9637 13.5282Z" fill="#FFFFFE"/>
<path d="M22.9431 18.0541C22.6889 20.0212 21.4247 21.494 20.1134 21.3327C18.7933 21.1521 17.9445 19.4219 18.1999 17.4356C18.4452 15.448 19.7081 13.9752 21.0283 14.157C22.3395 14.3184 23.1972 16.0665 22.9431 18.0541Z" fill="#FFFFFE"/>
<path d="M35.231 25.9431H17.275L18.36 10.744H34.1459L35.231 25.9431ZM34.2971 21.9884L33.1561 11.7993L19.454 12.1221C19.454 12.1221 28.4117 13.3669 30.2706 13.9854C32.1282 14.613 34.2971 21.9884 34.2971 21.9884Z" fill="url(#paint3_linear_38_6137)"/>
<path d="M34.2971 21.9884C34.2971 21.9884 32.1282 14.613 30.2706 13.9854C28.4117 13.3669 19.454 12.122 19.454 12.122L33.1561 11.7993L34.2971 21.9884Z" fill="url(#paint4_linear_38_6137)"/>
<path d="M61.7851 85.5868C61.7851 85.5868 54.901 84.3701 53.1006 82.2685C51.309 80.1593 51.3751 77.7542 51.3751 77.7542L51.3167 69.148C51.5682 69.7768 51.9291 70.4722 52.45 71.1587C55.3914 75.0545 62.8701 75.6628 62.8701 75.6628H85.0128C85.0128 75.6628 92.7926 75.3682 96.6298 71.1587C98.894 68.687 98.2244 64.9512 98.2244 64.9512L96.8102 47.3099C96.8102 47.3099 96.9322 42.8621 94.2728 41.0743C92.2805 39.7309 88.7915 39.5644 87.1817 39.5644C86.6493 39.5644 86.3227 39.5823 86.3227 39.5823H61.2857C61.2857 39.5823 56.8641 39.5913 54.807 41.3599C52.7423 43.1464 52.3268 46.4263 52.3268 46.4263L51.4755 57.3286L51.8986 30.0771C52.0904 30.9403 52.5136 32.2043 53.4487 33.4325C56.3914 37.3296 63.8701 37.9379 63.8701 37.9379H86.0127C86.0127 37.9379 93.7925 37.6434 97.6297 33.4325C98.8254 32.1275 99.2027 30.4678 99.2929 29.1935H99.4785V73.9813L99.6004 75.9484C99.6004 75.9484 99.9117 77.612 99.4785 79.437V80.1593H99.2713C99.0071 80.9008 98.6106 81.6231 97.9792 82.2685C95.8191 84.4457 89.01 85.2922 89.01 85.2922L61.7851 85.5868Z" fill="url(#paint5_linear_38_6137)"/>
<path d="M86.0127 37.9379H63.8701C63.8701 37.9379 56.3914 37.3296 53.4487 33.4325C52.5136 32.2043 52.0904 30.9403 51.8986 30.0771C51.7525 29.4189 51.7423 28.9937 51.7423 28.9937L53.3267 8.70009C53.3267 8.70009 53.3318 8.66551 53.342 8.60276C53.4284 8.04566 53.9531 5.23969 55.8069 3.64397C57.8716 1.86639 62.2857 1.85615 62.2857 1.85615H87.3227C87.3227 1.85615 87.6454 1.83823 88.1715 1.83823C89.7762 1.83823 93.2754 2.00471 95.2728 3.35838C97.9322 5.13596 97.8089 9.594 97.8089 9.594L99.2231 27.2263C99.2231 27.2263 99.373 28.0562 99.293 29.1935C99.2027 30.4678 98.8254 32.1275 97.6297 33.4325C93.7926 37.6434 86.0127 37.9379 86.0127 37.9379ZM63.3886 3.36862C63.3886 3.36862 59.343 3.36863 57.4473 5.00277C55.5617 6.62923 55.1843 9.64137 55.1843 9.64137L53.7409 28.233C53.7409 28.233 53.7791 30.3153 55.2885 32.3119C57.9949 35.876 64.851 36.4357 64.851 36.4357H85.1436C85.1436 36.4357 92.264 36.1604 95.781 32.3119C97.8559 30.049 97.2435 26.6078 97.2435 26.6078L95.9513 10.4584C95.9513 10.4584 96.0555 6.37182 93.6312 4.72743C91.813 3.50566 88.6352 3.3507 87.1461 3.3507C86.6429 3.3507 86.3329 3.36862 86.3329 3.36862H63.3886Z" fill="url(#paint6_linear_38_6137)"/>
<path d="M85.1437 36.4357H64.851C64.851 36.4357 57.9949 35.876 55.2886 32.3119C53.7791 30.3153 53.741 28.233 53.741 28.233L55.1844 9.64137C55.1844 9.64137 55.5617 6.62923 57.4473 5.00277C59.343 3.36863 63.3886 3.36863 63.3886 3.36863H86.3329C86.3329 3.36863 86.643 3.35071 87.1461 3.35071C88.6352 3.35071 91.813 3.50567 93.6312 4.72743C96.0555 6.37182 95.9513 10.4584 95.9513 10.4584L97.2435 26.6078C97.2435 26.6078 97.8559 30.049 95.781 32.3119C92.264 36.1603 85.1437 36.4357 85.1437 36.4357ZM84.5223 25.9431L83.4373 10.744H67.6425L66.5663 25.9431H84.5223Z" fill="url(#paint7_linear_38_6137)"/>
<path d="M62.3696 18.3769C63.3416 20.1058 63.2005 22.046 62.0405 22.6927C60.8893 23.3472 59.174 22.4738 58.202 20.7333C57.2313 18.9852 57.3723 17.0552 58.5235 16.3995C59.6823 15.7438 61.3988 16.6275 62.3696 18.3769Z" fill="#FFFFFE"/>
<path d="M62.3607 28.3008C62.1066 30.2769 60.8423 31.7497 59.5323 31.5883C58.2122 31.4078 57.3634 29.6686 57.6176 27.6912C57.8628 25.7049 59.127 24.2321 60.4472 24.4037C61.7571 24.5728 62.6059 26.3235 62.3607 28.3008Z" fill="#FFFFFE"/>
<path d="M69.537 24.6791C69.2829 26.6641 68.0186 28.1382 66.7087 27.9576C65.3974 27.7963 64.5397 26.0468 64.7939 24.0605C65.048 22.0934 66.3122 20.6206 67.6235 20.782C68.9347 20.9523 69.7924 22.6928 69.537 24.6791Z" fill="#FFFFFE"/>
<path d="M66.2461 13.5282C66.0009 15.5056 64.7278 16.9694 63.4178 16.7991C62.1066 16.6364 61.2489 14.8883 61.503 12.902C61.7572 10.9246 63.0214 9.46079 64.3314 9.63112C65.6426 9.79249 66.5015 11.5432 66.2461 13.5282Z" fill="#FFFFFE"/>
<path d="M72.2344 18.0541C71.9803 20.0212 70.7161 21.494 69.4061 21.3327C68.0859 21.1521 67.2372 19.4219 67.4913 17.4356C67.7365 15.448 68.9995 13.9752 70.3196 14.157C71.622 14.3184 72.4898 16.0665 72.2344 18.0541Z" fill="#FFFFFE"/>
<path d="M84.5223 25.9431H66.5663L67.6425 10.744H83.4373L84.5223 25.9431ZM83.5796 21.9884L82.4475 11.7993L68.7454 12.1221C68.7454 12.1221 77.7043 13.3669 79.562 13.9854C81.4094 14.613 83.5796 21.9884 83.5796 21.9884Z" fill="url(#paint8_linear_38_6137)"/>
<path d="M83.5795 21.9884C83.5795 21.9884 81.4094 14.613 79.5619 13.9854C77.7043 13.3669 68.7454 12.122 68.7454 12.122L82.4474 11.7993L83.5795 21.9884Z" fill="url(#paint9_linear_38_6137)"/>
<path d="M112.078 85.5868C112.078 85.5868 105.194 84.3701 103.392 82.2685C101.6 80.1593 101.666 77.7542 101.666 77.7542L101.633 73.0374C101.669 73.0861 101.705 73.1348 101.741 73.1834C104.684 77.0792 112.162 77.6876 112.162 77.6876H134.304C134.304 77.6876 142.084 77.384 145.921 73.1834C148.175 70.7117 147.516 66.9657 147.516 66.9657L146.102 49.3334C146.102 49.3334 146.215 44.8766 143.564 43.099C141.569 41.7467 138.074 41.5789 136.467 41.5789C135.939 41.5789 135.615 41.5968 135.615 41.5968H110.568C110.568 41.5968 106.155 41.6071 104.098 43.3846C102.904 44.413 102.259 45.9447 101.927 47.0525L102.19 30.0618C102.381 30.9262 102.805 32.1967 103.741 33.4325C106.683 37.3296 114.17 37.9379 114.17 37.9379H136.303C136.303 37.9379 144.083 37.6434 147.931 33.4325C149.122 32.1275 149.497 30.4678 149.586 29.1935H149.77V73.9813L149.892 75.9484C149.892 75.9484 150.203 77.612 149.77 79.437V80.1593H149.563C149.298 80.9008 148.902 81.6231 148.271 82.2685C146.11 84.4457 139.301 85.2922 139.301 85.2922L112.078 85.5868Z" fill="url(#paint10_linear_38_6137)"/>
<path d="M136.303 37.9379H114.17C114.17 37.9379 106.683 37.3296 103.741 33.4325C102.805 32.1967 102.381 30.9262 102.19 30.0618C102.046 29.4125 102.034 28.9937 102.034 28.9937L103.618 8.70009C103.618 8.70009 103.791 7.33873 104.466 5.89541C104.838 5.09883 105.364 4.27534 106.098 3.64397C108.164 1.86639 112.577 1.85615 112.577 1.85615H137.614C137.614 1.85615 137.937 1.83823 138.462 1.83823C140.068 1.83823 143.569 2.00471 145.573 3.35838C146.539 4.00641 147.136 5.01046 147.506 6.02475C148.15 7.79337 148.1 9.594 148.1 9.594L149.516 27.2263C149.516 27.2263 149.664 28.0562 149.586 29.1935C149.497 30.4678 149.122 32.1275 147.931 33.4325C144.083 37.6434 136.303 37.9379 136.303 37.9379ZM113.68 3.36862C113.68 3.36862 109.634 3.36863 107.74 5.00277C105.853 6.62923 105.476 9.64137 105.476 9.64137L104.034 28.233C104.034 28.233 104.081 30.3153 105.589 32.3119C108.286 35.876 115.142 36.4357 115.142 36.4357H135.436C135.436 36.4357 142.555 36.1604 146.074 32.3119C148.147 30.049 147.535 26.6078 147.535 26.6078L146.243 10.4584C146.243 10.4584 146.346 6.37182 143.923 4.72743C142.104 3.50566 138.932 3.3507 137.445 3.3507C136.943 3.3507 136.633 3.36862 136.633 3.36862H113.68Z" fill="url(#paint11_linear_38_6137)"/>
<path d="M135.436 36.4357H115.142C115.142 36.4357 108.286 35.876 105.589 32.3119C104.081 30.3153 104.034 28.233 104.034 28.233L105.476 9.64137C105.476 9.64137 105.853 6.62923 107.74 5.00277C109.634 3.36863 113.68 3.36863 113.68 3.36863H136.633C136.633 3.36863 136.943 3.35071 137.445 3.35071C138.932 3.35071 142.104 3.50567 143.923 4.72743C146.346 6.37182 146.243 10.4584 146.243 10.4584L147.535 26.6078C147.535 26.6078 148.147 30.049 146.074 32.3119C142.555 36.1603 135.436 36.4357 135.436 36.4357ZM134.814 25.9431L133.729 10.744H117.943L116.858 25.9431H134.814Z" fill="url(#paint12_linear_38_6137)"/>
<path d="M112.662 18.3769C113.633 20.1058 113.492 22.046 112.332 22.6927C111.182 23.3472 109.465 22.4738 108.493 20.7333C107.523 18.9852 107.664 17.0552 108.814 16.3995C109.974 15.7438 111.69 16.6275 112.662 18.3769Z" fill="#FFFFFE"/>
<path d="M112.652 28.3008C112.398 30.2769 111.135 31.7497 109.824 31.5883C108.512 31.4078 107.655 29.6686 107.909 27.6912C108.154 25.7049 109.417 24.2321 110.738 24.4037C112.048 24.5728 112.897 26.3235 112.652 28.3008Z" fill="#FFFFFE"/>
<path d="M119.828 24.6791C119.574 26.6641 118.31 28.1382 117 27.9576C115.689 27.7963 114.831 26.0468 115.085 24.0605C115.341 22.0934 116.603 20.6206 117.913 20.782C119.225 20.9523 120.084 22.6928 119.828 24.6791Z" fill="#FFFFFE"/>
<path d="M116.546 13.5282C116.292 15.5056 115.019 16.9694 113.708 16.7991C112.398 16.6364 111.539 14.8883 111.794 12.902C112.048 10.9246 113.313 9.46079 114.624 9.63112C115.934 9.79249 116.793 11.5432 116.546 13.5282Z" fill="#FFFFFE"/>
<path d="M122.526 18.0541C122.272 20.0212 121.007 21.494 119.696 21.3327C118.376 21.1521 117.527 19.4219 117.783 17.4356C118.028 15.448 119.291 13.9752 120.612 14.157C121.922 14.3184 122.781 16.0665 122.526 18.0541Z" fill="#FFFFFE"/>
<path d="M134.814 25.9431H116.858L117.943 10.744H133.729L134.814 25.9431ZM133.88 21.9884L132.739 11.7993L119.037 12.1221C119.037 12.1221 127.996 13.3669 129.853 13.9854C131.711 14.613 133.88 21.9884 133.88 21.9884Z" fill="url(#paint13_linear_38_6137)"/>
<path d="M133.88 21.9884C133.88 21.9884 131.711 14.613 129.853 13.9854C127.996 13.3669 119.037 12.122 119.037 12.122L132.739 11.7993L133.88 21.9884Z" fill="url(#paint14_linear_38_6137)"/>
<path d="M48.1682 120.004C48.6027 118.179 48.2914 116.507 48.2914 116.507L48.1682 114.539V69.7614H0.602262L0 108.656L0.064801 118.313C0.064801 118.313 -1.51466e-07 120.717 1.79153 122.837C3.59196 124.938 10.476 126.144 10.476 126.144L37.701 125.85C37.701 125.85 44.5101 125.003 46.6689 122.837C47.3016 122.19 47.7057 121.469 47.9699 120.717H48.1682V120.004Z" fill="url(#paint15_linear_38_6137)"/>
<path d="M34.7024 78.5059H12.5699C12.5699 78.5059 5.09124 77.8963 2.13965 73.9992C2.1117 73.9621 2.08374 73.9249 2.05706 73.8878C0.496774 71.7465 0.442139 69.5527 0.442139 69.5527L2.0164 49.268C2.0164 49.268 2.09137 48.6879 2.33024 47.8849C2.66059 46.7733 3.30479 45.2326 4.49787 44.2017C6.56258 42.4344 10.9754 42.4241 10.9754 42.4241H36.0225C36.0225 42.4241 36.3618 42.4049 36.9107 42.4049C38.5332 42.4049 41.9918 42.5739 43.9726 43.9161C46.6218 45.695 46.5087 50.1517 46.5087 50.1517L47.9229 67.7841C47.9229 67.7841 48.5836 71.5288 46.3296 73.9992C42.4822 78.2024 34.7024 78.5059 34.7024 78.5059ZM12.0884 43.9264C12.0884 43.9264 8.03393 43.9264 6.1471 45.5707C4.26154 47.1959 3.87528 50.1991 3.87528 50.1991L2.43189 68.792C2.43189 68.792 2.4789 70.8731 3.98836 72.8684C6.68456 76.4338 13.5407 76.9934 13.5407 76.9934H33.8346C33.8346 76.9934 40.9537 76.7181 44.4809 72.8684C46.5558 70.6169 45.9433 67.1655 45.9433 67.1655L44.641 51.0175C44.641 51.0175 44.7452 46.9295 42.3221 45.2941C40.4874 44.0608 37.2741 43.9097 35.8053 43.9097C35.3263 43.9097 35.0328 43.9264 35.0328 43.9264H12.0884Z" fill="url(#paint16_linear_38_6137)"/>
<path d="M33.8346 76.9934H13.5407C13.5407 76.9934 6.68456 76.4338 3.98836 72.8684C2.4789 70.8731 2.43188 68.792 2.43188 68.792L3.87528 50.1991C3.87528 50.1991 4.26154 47.1959 6.1471 45.5708C8.03393 43.9264 12.0884 43.9264 12.0884 43.9264H35.0327C35.0327 43.9264 35.3262 43.9097 35.8053 43.9097C37.2741 43.9097 40.4874 44.0608 42.3221 45.2941C44.7452 46.9296 44.641 51.0175 44.641 51.0175L45.9433 67.1655C45.9433 67.1655 46.5557 70.617 44.4809 72.8684C40.9537 76.7181 33.8346 76.9934 33.8346 76.9934ZM33.212 66.5009L32.1282 51.3031H16.3411L15.2572 66.5009H33.212Z" fill="url(#paint17_linear_38_6137)"/>
<path d="M11.0605 58.9346C12.0414 60.6738 11.8902 62.6037 10.7403 63.2595C9.58917 63.9152 7.8637 63.0315 6.89297 61.3013C5.92097 59.5519 6.06328 57.6129 7.21316 56.9662C8.37321 56.3118 10.0898 57.1852 11.0605 58.9346Z" fill="#FFFFFE"/>
<path d="M11.0516 68.8663C10.7975 70.8437 9.53328 72.3087 8.22203 72.1461C6.91205 71.9655 6.05313 70.2366 6.30725 68.249C6.55374 66.2627 7.82687 64.7899 9.13686 64.9692C10.4481 65.1408 11.3058 66.8812 11.0516 68.8663Z" fill="#FFFFFE"/>
<path d="M18.2279 65.2458C17.9827 67.2321 16.7096 68.6972 15.3983 68.5256C14.0871 68.354 13.2294 66.6058 13.4848 64.6285C13.7389 62.6511 15.0032 61.1783 16.3132 61.3487C17.6244 61.51 18.4821 63.2595 18.2279 65.2458Z" fill="#FFFFFE"/>
<path d="M14.946 54.086C14.6918 56.0736 13.4187 57.5374 12.1075 57.3658C10.7975 57.1955 9.93855 55.4563 10.1939 53.4687C10.4481 51.4824 11.711 50.0275 13.0223 50.1889C14.3335 50.3515 15.1912 52.1009 14.946 54.086Z" fill="#FFFFFE"/>
<path d="M20.9241 58.6119C20.67 60.5892 19.407 62.062 18.0957 61.8904C16.7858 61.7188 15.9268 59.9796 16.181 57.9933C16.4262 56.0159 17.6993 54.5342 19.0106 54.7148C20.3218 54.8851 21.1795 56.6255 20.9241 58.6119Z" fill="#FFFFFE"/>
<path d="M33.212 66.5008H15.2573L16.3411 51.303H32.1282L33.212 66.5008ZM32.2781 62.5461L31.1371 52.3673L17.4351 52.69C17.4351 52.69 26.4042 53.9348 28.2618 54.5534C30.1092 55.1796 32.2781 62.5461 32.2781 62.5461Z" fill="url(#paint18_linear_38_6137)"/>
<path d="M32.2781 62.5461C32.2781 62.5461 30.1092 55.1797 28.2618 54.5534C26.4042 53.9348 17.4351 52.69 17.4351 52.69L31.1371 52.3673L32.2781 62.5461Z" fill="url(#paint19_linear_38_6137)"/>
<path d="M98.4696 117.162C98.9118 115.338 98.5916 113.675 98.5916 113.675L98.4696 111.697V66.9183H50.9126L50.3091 105.823L50.3752 115.48C50.3752 115.48 50.3091 117.875 52.1006 119.995C53.8934 122.095 60.7775 123.312 60.7775 123.312L88.0012 123.008C88.0012 123.008 94.8205 122.171 96.9703 119.995C97.6018 119.348 98.0071 118.626 98.2714 117.875H98.4696V117.162Z" fill="url(#paint20_linear_38_6137)"/>
<path d="M85.0128 75.6628H62.8702C62.8702 75.6628 55.3915 75.0545 52.4501 71.1586C51.9291 70.4722 51.5683 69.7768 51.3167 69.148C50.7691 67.7802 50.7437 66.7198 50.7437 66.7198L52.3268 46.4262C52.3268 46.4262 52.7423 43.1464 54.807 41.3599C56.8641 39.5913 61.2858 39.5823 61.2858 39.5823H86.3228C86.3228 39.5823 86.6493 39.5644 87.1817 39.5644C88.7915 39.5644 92.2806 39.7309 94.2729 41.0743C96.9322 42.8621 96.8102 47.3099 96.8102 47.3099L98.2244 64.9512C98.2244 64.9512 98.894 68.6869 96.6298 71.1586C92.7926 75.3682 85.0128 75.6628 85.0128 75.6628ZM62.3899 41.0935C62.3899 41.0935 58.3431 41.0935 56.4486 42.7276C54.5631 44.3541 54.1755 47.3662 54.1755 47.3662L52.7334 65.9591C52.7334 65.9591 52.7804 68.0312 54.2886 70.0278C56.9861 73.6009 63.8422 74.1516 63.8422 74.1516H84.1361C84.1361 74.1516 91.2641 73.8852 94.7824 70.0278C96.8573 67.7738 96.2436 64.325 96.2436 64.325L94.9514 48.1846C94.9514 48.1846 95.0555 44.098 92.6224 42.4523C90.8092 41.2292 87.6302 41.0756 86.1423 41.0756C85.6417 41.0756 85.333 41.0935 85.333 41.0935H62.3899Z" fill="url(#paint21_linear_38_6137)"/>
<path d="M84.1361 74.1516H63.8422C63.8422 74.1516 56.9861 73.6009 54.2886 70.0278C52.7804 68.0312 52.7334 65.9591 52.7334 65.9591L54.1755 47.3662C54.1755 47.3662 54.5631 44.3541 56.4486 42.7276C58.3431 41.0935 62.3899 41.0935 62.3899 41.0935H85.333C85.333 41.0935 85.6417 41.0756 86.1423 41.0756C87.6302 41.0756 90.8092 41.2292 92.6224 42.4523C95.0555 44.098 94.9514 48.1846 94.9514 48.1846L96.2436 64.325C96.2436 64.325 96.8573 67.7738 94.7824 70.0278C91.2641 73.8852 84.1361 74.1516 84.1361 74.1516ZM83.5224 63.659L82.4386 48.4702H66.6426L65.5575 63.659H83.5224Z" fill="url(#paint22_linear_38_6137)"/>
<path d="M61.3709 56.0928C62.3429 57.8319 62.1917 59.7619 61.0406 60.4176C59.8907 61.072 58.1741 60.1986 57.1932 58.4582C56.2225 56.7101 56.3724 54.7801 57.5235 54.1256C58.6734 53.4687 60.4002 54.3447 61.3709 56.0928Z" fill="#FFFFFE"/>
<path d="M61.362 66.0257C61.1066 68.0031 59.8334 69.4758 58.5324 69.3042C57.2122 69.1326 56.3635 67.3935 56.6087 65.4071C56.8641 63.4298 58.127 61.948 59.437 62.1286C60.7483 62.2989 61.6059 64.0394 61.362 66.0257Z" fill="#FFFFFE"/>
<path d="M68.5383 62.404C68.2829 64.3903 67.0199 65.8643 65.7087 65.6825C64.3974 65.5211 63.5398 63.773 63.7952 61.7854C64.0493 59.8183 65.3034 58.3365 66.6235 58.5069C67.9246 58.6772 68.7924 60.4176 68.5383 62.404Z" fill="#FFFFFE"/>
<path d="M65.2462 51.2454C64.9921 53.2305 63.7278 54.6956 62.4178 54.5239C61.1066 54.3626 60.2489 52.6132 60.4942 50.6268C60.7483 48.6405 62.0214 47.187 63.3225 47.3483C64.6439 47.5187 65.4927 49.2681 65.2462 51.2454Z" fill="#FFFFFE"/>
<path d="M71.2256 55.7701C70.9803 57.7462 69.7072 59.2189 68.396 59.0576C67.086 58.8783 66.2271 57.1378 66.4825 55.1605C66.7366 53.1741 68.0008 51.7014 69.3121 51.873C70.622 52.0433 71.481 53.7927 71.2256 55.7701Z" fill="#FFFFFE"/>
<path d="M83.5224 63.659H65.5575L66.6426 48.4702H82.4386L83.5224 63.659ZM82.5796 59.7043L81.4475 49.5242L67.7366 49.8482C67.7366 49.8482 76.7044 51.0918 78.562 51.7103C80.4107 52.3379 82.5796 59.7043 82.5796 59.7043Z" fill="url(#paint23_linear_38_6137)"/>
<path d="M82.5796 59.7043C82.5796 59.7043 80.4107 52.3378 78.562 51.7103C76.7044 51.0917 67.7365 49.8482 67.7365 49.8482L81.4475 49.5242L82.5796 59.7043Z" fill="url(#paint24_linear_38_6137)"/>
<path d="M147.761 119.187C148.196 117.353 147.883 115.689 147.883 115.689L147.761 113.722V68.9431H100.195L99.6005 107.837L99.6665 117.495C99.6665 117.495 99.6005 119.9 101.393 122.01C103.185 124.111 110.069 125.326 110.069 125.326L137.293 125.033C137.293 125.033 144.112 124.186 146.262 122.01C146.893 121.373 147.299 120.65 147.563 119.9H147.761V119.187Z" fill="url(#paint25_linear_38_6137)"/>
<path d="M134.304 77.6875H112.162C112.162 77.6875 104.684 77.0792 101.741 73.1834C101.705 73.1347 101.669 73.0861 101.633 73.0374C100.088 70.9064 100.035 68.7343 100.035 68.7343L101.609 48.4407C101.609 48.4407 101.685 47.8593 101.927 47.0525C102.259 45.9447 102.904 44.413 104.098 43.3846C106.155 41.607 110.568 41.5968 110.568 41.5968H135.615C135.615 41.5968 135.939 41.5789 136.467 41.5789C138.074 41.5789 141.569 41.7466 143.564 43.099C146.215 44.8766 146.102 49.3334 146.102 49.3334L147.516 66.9657C147.516 66.9657 148.175 70.7117 145.921 73.1834C142.084 77.384 134.304 77.6875 134.304 77.6875ZM111.681 43.108C111.681 43.108 107.625 43.108 105.74 44.7447C103.854 46.3788 103.467 49.382 103.467 49.382L102.025 67.9736C102.025 67.9736 102.072 70.0547 103.58 72.0513C106.277 75.6154 113.134 76.1763 113.134 76.1763H133.426C133.426 76.1763 140.557 75.901 144.074 72.0513C146.149 69.7986 145.535 66.3484 145.535 66.3484L144.234 50.1991C144.234 50.1991 144.347 46.1125 141.914 44.477C140.098 43.245 136.911 43.0913 135.427 43.0913C134.931 43.0913 134.624 43.108 134.624 43.108H111.681Z" fill="url(#paint26_linear_38_6137)"/>
<path d="M133.426 76.1764H113.134C113.134 76.1764 106.277 75.6154 103.58 72.0513C102.072 70.0547 102.025 67.9736 102.025 67.9736L103.467 49.3821C103.467 49.3821 103.854 46.3789 105.74 44.7447C107.625 43.108 111.681 43.108 111.681 43.108H134.624C134.624 43.108 134.931 43.0914 135.427 43.0914C136.911 43.0914 140.098 43.2451 141.914 44.4771C144.347 46.1125 144.234 50.1991 144.234 50.1991L145.535 66.3484C145.535 66.3484 146.149 69.7986 144.074 72.0513C140.557 75.901 133.426 76.1764 133.426 76.1764ZM132.805 65.6825L131.73 50.4847H115.934L114.849 65.6825H132.805Z" fill="url(#paint27_linear_38_6137)"/>
<path d="M110.662 58.1175C111.634 59.8465 111.483 61.7854 110.333 62.4424C109.182 63.0891 107.457 62.2132 106.485 60.4842C105.514 58.7348 105.665 56.7959 106.815 56.1402C107.965 55.4845 109.692 56.3681 110.662 58.1175Z" fill="#FFFFFE"/>
<path d="M110.643 68.0505C110.398 70.0176 109.125 71.4904 107.815 71.329C106.504 71.1484 105.646 69.4182 105.9 67.4319C106.155 65.4456 107.418 63.9715 108.73 64.1534C110.04 64.3147 110.899 66.0628 110.643 68.0505Z" fill="#FFFFFE"/>
<path d="M117.83 64.4197C117.574 66.4061 116.301 67.8788 115.001 67.7072C113.68 67.5356 112.831 65.7875 113.087 63.8101C113.341 61.8328 114.595 60.36 115.915 60.5227C117.217 60.693 118.084 62.4424 117.83 64.4197Z" fill="#FFFFFE"/>
<path d="M114.539 53.2701C114.283 55.2552 113.02 56.7101 111.7 56.5487C110.398 56.3771 109.531 54.6289 109.786 52.6516C110.04 50.6652 111.304 49.2014 112.615 49.373C113.935 49.5344 114.784 51.2825 114.539 53.2701Z" fill="#FFFFFE"/>
<path d="M120.517 57.7935C120.263 59.7619 118.999 61.2437 117.689 61.0721C116.377 60.8928 115.52 59.1626 115.774 57.1762C116.019 55.1899 117.292 53.7158 118.602 53.8964C119.913 54.0591 120.772 55.8072 120.517 57.7935Z" fill="#FFFFFE"/>
<path d="M132.805 65.6825H114.849L115.934 50.4847H131.73L132.805 65.6825ZM131.871 61.7291L130.73 51.5489L117.028 51.8627C117.028 51.8627 125.996 53.1088 127.853 53.7351C129.702 54.3626 131.871 61.7291 131.871 61.7291Z" fill="url(#paint28_linear_38_6137)"/>
<path d="M131.871 61.729C131.871 61.729 129.702 54.3626 127.853 53.735C125.996 53.1088 117.028 51.8627 117.028 51.8627L130.73 51.5489L131.871 61.729Z" fill="url(#paint29_linear_38_6137)"/>
<defs>
<linearGradient id="paint0_linear_38_6137" x1="2.01768" y1="57.3901" x2="50.4171" y2="57.3901" gradientUnits="userSpaceOnUse">
<stop stop-color="#2D2E2D"/>
<stop offset="0.521" stop-color="#676B65"/>
<stop offset="0.824" stop-color="#676B65"/>
<stop offset="1" stop-color="#2D2E2D"/>
</linearGradient>
<linearGradient id="paint1_linear_38_6137" x1="26.2377" y1="51.2044" x2="26.2377" y2="-19.973" gradientUnits="userSpaceOnUse">
<stop stop-color="#676B65"/>
<stop offset="1" stop-color="#2D2E2D"/>
</linearGradient>
<linearGradient id="paint2_linear_38_6137" x1="26.9963" y1="52.7566" x2="24.869" y2="-16.3054" gradientUnits="userSpaceOnUse">
<stop stop-color="#FFFFFE"/>
<stop offset="0.618" stop-color="#DDE1E3"/>
<stop offset="1" stop-color="#DDE1E3"/>
</linearGradient>
<linearGradient id="paint3_linear_38_6137" x1="15.3945" y1="35.146" x2="34.5578" y2="7.34928" gradientUnits="userSpaceOnUse">
<stop stop-color="#F2B6A9"/>
<stop offset="0.012" stop-color="#F2B6A9"/>
<stop offset="0.6" stop-color="#C75054"/>
<stop offset="1" stop-color="#C75054"/>
</linearGradient>
<linearGradient id="paint4_linear_38_6137" x1="15.3945" y1="35.146" x2="34.5578" y2="7.34927" gradientUnits="userSpaceOnUse">
<stop stop-color="#F8D5C8"/>
<stop offset="0.012" stop-color="#F8D5C8"/>
<stop offset="0.6" stop-color="#DA817D"/>
<stop offset="1" stop-color="#DA817D"/>
</linearGradient>
<linearGradient id="paint5_linear_38_6137" x1="51.309" y1="57.3901" x2="99.7084" y2="57.3901" gradientUnits="userSpaceOnUse">
<stop stop-color="#2D2E2D"/>
<stop offset="0.521" stop-color="#676B65"/>
<stop offset="0.824" stop-color="#676B65"/>
<stop offset="1" stop-color="#2D2E2D"/>
</linearGradient>
<linearGradient id="paint6_linear_38_6137" x1="75.5303" y1="51.2044" x2="75.5303" y2="-19.973" gradientUnits="userSpaceOnUse">
<stop stop-color="#676B65"/>
<stop offset="1" stop-color="#2D2E2D"/>
</linearGradient>
<linearGradient id="paint7_linear_38_6137" x1="76.2876" y1="52.7579" x2="74.1591" y2="-16.3041" gradientUnits="userSpaceOnUse">
<stop stop-color="#FFFFFE"/>
<stop offset="0.618" stop-color="#DDE1E3"/>
<stop offset="1" stop-color="#DDE1E3"/>
</linearGradient>
<linearGradient id="paint8_linear_38_6137" x1="64.6821" y1="35.1435" x2="83.8453" y2="7.34673" gradientUnits="userSpaceOnUse">
<stop stop-color="#F2B6A9"/>
<stop offset="0.012" stop-color="#F2B6A9"/>
<stop offset="0.6" stop-color="#C75054"/>
<stop offset="1" stop-color="#C75054"/>
</linearGradient>
<linearGradient id="paint9_linear_38_6137" x1="64.682" y1="35.1435" x2="83.8453" y2="7.3467" gradientUnits="userSpaceOnUse">
<stop stop-color="#F8D5C8"/>
<stop offset="0.012" stop-color="#F8D5C8"/>
<stop offset="0.6" stop-color="#DA817D"/>
<stop offset="1" stop-color="#DA817D"/>
</linearGradient>
<linearGradient id="paint10_linear_38_6137" x1="101.6" y1="57.3901" x2="150.001" y2="57.3901" gradientUnits="userSpaceOnUse">
<stop stop-color="#2D2E2D"/>
<stop offset="0.521" stop-color="#676B65"/>
<stop offset="0.824" stop-color="#676B65"/>
<stop offset="1" stop-color="#2D2E2D"/>
</linearGradient>
<linearGradient id="paint11_linear_38_6137" x1="125.822" y1="51.2044" x2="125.822" y2="-19.973" gradientUnits="userSpaceOnUse">
<stop stop-color="#676B65"/>
<stop offset="1" stop-color="#2D2E2D"/>
</linearGradient>
<linearGradient id="paint12_linear_38_6137" x1="126.579" y1="52.7566" x2="124.45" y2="-16.3054" gradientUnits="userSpaceOnUse">
<stop stop-color="#FFFFFE"/>
<stop offset="0.618" stop-color="#DDE1E3"/>
<stop offset="1" stop-color="#DDE1E3"/>
</linearGradient>
<linearGradient id="paint13_linear_38_6137" x1="114.976" y1="35.146" x2="134.139" y2="7.34928" gradientUnits="userSpaceOnUse">
<stop stop-color="#F2B6A9"/>
<stop offset="0.012" stop-color="#F2B6A9"/>
<stop offset="0.6" stop-color="#C75054"/>
<stop offset="1" stop-color="#C75054"/>
</linearGradient>
<linearGradient id="paint14_linear_38_6137" x1="114.976" y1="35.146" x2="134.139" y2="7.34927" gradientUnits="userSpaceOnUse">
<stop stop-color="#F8D5C8"/>
<stop offset="0.012" stop-color="#F8D5C8"/>
<stop offset="0.6" stop-color="#DA817D"/>
<stop offset="1" stop-color="#DA817D"/>
</linearGradient>
<linearGradient id="paint15_linear_38_6137" x1="0" y1="97.9517" x2="48.3994" y2="97.9517" gradientUnits="userSpaceOnUse">
<stop stop-color="#2D2E2D"/>
<stop offset="0.521" stop-color="#676B65"/>
<stop offset="0.824" stop-color="#676B65"/>
<stop offset="1" stop-color="#2D2E2D"/>
</linearGradient>
<linearGradient id="paint16_linear_38_6137" x1="24.2276" y1="91.7737" x2="24.2276" y2="20.5912" gradientUnits="userSpaceOnUse">
<stop stop-color="#676B65"/>
<stop offset="1" stop-color="#2D2E2D"/>
</linearGradient>
<linearGradient id="paint17_linear_38_6137" x1="24.9824" y1="93.3144" x2="22.8551" y2="24.2549" gradientUnits="userSpaceOnUse">
<stop stop-color="#FFFFFE"/>
<stop offset="0.618" stop-color="#DDE1E3"/>
<stop offset="1" stop-color="#DDE1E3"/>
</linearGradient>
<linearGradient id="paint18_linear_38_6137" x1="13.3755" y1="75.7038" x2="32.5388" y2="47.9083" gradientUnits="userSpaceOnUse">
<stop stop-color="#F2B6A9"/>
<stop offset="0.012" stop-color="#F2B6A9"/>
<stop offset="0.6" stop-color="#C75054"/>
<stop offset="1" stop-color="#C75054"/>
</linearGradient>
<linearGradient id="paint19_linear_38_6137" x1="13.3755" y1="75.7037" x2="32.5388" y2="47.9083" gradientUnits="userSpaceOnUse">
<stop stop-color="#F8D5C8"/>
<stop offset="0.012" stop-color="#F8D5C8"/>
<stop offset="0.6" stop-color="#DA817D"/>
<stop offset="1" stop-color="#DA817D"/>
</linearGradient>
<linearGradient id="paint20_linear_38_6137" x1="50.3091" y1="95.1163" x2="98.7034" y2="95.1163" gradientUnits="userSpaceOnUse">
<stop stop-color="#2D2E2D"/>
<stop offset="0.521" stop-color="#676B65"/>
<stop offset="0.824" stop-color="#676B65"/>
<stop offset="1" stop-color="#2D2E2D"/>
</linearGradient>
<linearGradient id="paint21_linear_38_6137" x1="74.5291" y1="88.9293" x2="74.5291" y2="17.7519" gradientUnits="userSpaceOnUse">
<stop stop-color="#676B65"/>
<stop offset="1" stop-color="#2D2E2D"/>
</linearGradient>
<linearGradient id="paint22_linear_38_6137" x1="75.2826" y1="90.4712" x2="73.1553" y2="21.4272" gradientUnits="userSpaceOnUse">
<stop stop-color="#FFFFFE"/>
<stop offset="0.618" stop-color="#DDE1E3"/>
<stop offset="1" stop-color="#DDE1E3"/>
</linearGradient>
<linearGradient id="paint23_linear_38_6137" x1="63.6821" y1="72.8658" x2="82.8441" y2="45.0716" gradientUnits="userSpaceOnUse">
<stop stop-color="#F2B6A9"/>
<stop offset="0.012" stop-color="#F2B6A9"/>
<stop offset="0.6" stop-color="#C75054"/>
<stop offset="1" stop-color="#C75054"/>
</linearGradient>
<linearGradient id="paint24_linear_38_6137" x1="63.682" y1="72.8658" x2="82.844" y2="45.0716" gradientUnits="userSpaceOnUse">
<stop stop-color="#F8D5C8"/>
<stop offset="0.012" stop-color="#F8D5C8"/>
<stop offset="0.6" stop-color="#DA817D"/>
<stop offset="1" stop-color="#DA817D"/>
</linearGradient>
<linearGradient id="paint25_linear_38_6137" x1="99.6005" y1="97.1346" x2="147.991" y2="97.1346" gradientUnits="userSpaceOnUse">
<stop stop-color="#2D2E2D"/>
<stop offset="0.521" stop-color="#676B65"/>
<stop offset="0.824" stop-color="#676B65"/>
<stop offset="1" stop-color="#2D2E2D"/>
</linearGradient>
<linearGradient id="paint26_linear_38_6137" x1="123.819" y1="90.9579" x2="123.819" y2="19.7625" gradientUnits="userSpaceOnUse">
<stop stop-color="#676B65"/>
<stop offset="1" stop-color="#2D2E2D"/>
</linearGradient>
<linearGradient id="paint27_linear_38_6137" x1="124.575" y1="92.4973" x2="122.447" y2="23.4379" gradientUnits="userSpaceOnUse">
<stop stop-color="#FFFFFE"/>
<stop offset="0.618" stop-color="#DDE1E3"/>
<stop offset="1" stop-color="#DDE1E3"/>
</linearGradient>
<linearGradient id="paint28_linear_38_6137" x1="112.966" y1="74.888" x2="132.133" y2="47.0861" gradientUnits="userSpaceOnUse">
<stop stop-color="#F2B6A9"/>
<stop offset="0.012" stop-color="#F2B6A9"/>
<stop offset="0.6" stop-color="#C75054"/>
<stop offset="1" stop-color="#C75054"/>
</linearGradient>
<linearGradient id="paint29_linear_38_6137" x1="112.966" y1="74.888" x2="132.133" y2="47.0861" gradientUnits="userSpaceOnUse">
<stop stop-color="#F8D5C8"/>
<stop offset="0.012" stop-color="#F8D5C8"/>
<stop offset="0.6" stop-color="#DA817D"/>
<stop offset="1" stop-color="#DA817D"/>
</linearGradient>
</defs>
</svg>
