<svg width="84" height="84" viewBox="0 0 84 84" fill="none" xmlns="http://www.w3.org/2000/svg">
<g clip-path="url(#clip0_1320_9602)">
<path d="M84 34.02V37.1L45.29 57.75C43.225 58.835 40.775 58.835 38.71 57.75L0 37.1V34.02C0 30.415 1.995 27.125 5.25 25.445L37.625 8.925C40.355 7.525 43.645 7.525 46.375 8.925L78.75 25.445C82.005 27.125 84 30.415 84 34.02Z" fill="#388E3C"/>
<path d="M67.375 0H16.625C12.285 0 8.75 3.5315 8.75 7.875V49C8.75 54.3095 13.0655 58.625 18.375 58.625H65.625C70.9345 58.625 75.25 54.3095 75.25 49V7.875C75.25 3.5315 71.715 0 67.375 0Z" fill="#ECEFF1"/>
<path d="M84 37.1001V74.3751C84 79.6951 79.695 84.0001 74.375 84.0001H9.625C4.305 84.0001 0 79.6951 0 74.3751V37.1001L38.71 57.7501C40.775 58.8351 43.225 58.8351 45.29 57.7501L84 37.1001Z" fill="#4CAF50"/>
<path d="M8.75 23.6602L5.25 25.4452C1.995 27.1252 0 30.4152 0 34.0202V37.1002L8.75 41.7692V23.6602Z" fill="#317C34"/>
<path fill-rule="evenodd" clip-rule="evenodd" d="M16.5703 0H42V58.625H18.3203C13.0108 58.625 8.69531 54.3095 8.69531 49V7.875C8.69531 3.5315 12.2303 0 16.5703 0Z" fill="#CDD0D2"/>
<path d="M0 37.1001V74.3751C0 79.6951 4.305 84.0001 9.625 84.0001H42V58.5656C40.8695 58.5656 39.7425 58.2926 38.71 57.7501L8.75 41.7691L0 37.1001Z" fill="#219653"/>
<path d="M29.2528 16.1058C28.92 16.1058 28.6371 15.9893 28.4041 15.7563C28.1712 15.5234 28.0547 15.2405 28.0547 14.9077V13.0605C28.0547 12.6945 28.1712 12.3949 28.4041 12.162C28.6371 11.929 28.92 11.8125 29.2528 11.8125H54.713C55.0791 11.8125 55.3786 11.929 55.6116 12.162C55.8445 12.3949 55.961 12.6945 55.961 13.0605V14.9077C55.961 15.2405 55.8279 15.5234 55.5616 15.7563C55.3287 15.9893 55.0458 16.1058 54.713 16.1058H29.2528ZM39.6865 46.7578C39.3537 46.7578 39.0708 46.6413 38.8378 46.4084C38.6048 46.1754 38.4884 45.8925 38.4884 45.5597V24.1931H29.2528C28.92 24.1931 28.6371 24.0766 28.4041 23.8437C28.1712 23.6107 28.0547 23.3278 28.0547 22.995V20.2992C28.0547 19.9331 28.1712 19.6502 28.4041 19.4505C28.6371 19.2176 28.92 19.1011 29.2528 19.1011H54.713C55.0791 19.1011 55.3786 19.2176 55.6116 19.4505C55.8445 19.6835 55.961 19.9664 55.961 20.2992V22.995C55.961 23.3278 55.8445 23.6107 55.6116 23.8437C55.3786 24.0766 55.0791 24.1931 54.713 24.1931H45.5273V45.5597C45.5273 45.8925 45.4109 46.1754 45.1779 46.4084C44.9449 46.6413 44.6454 46.7578 44.2793 46.7578H39.6865Z" fill="#607D8B"/>
<path fill-rule="evenodd" clip-rule="evenodd" d="M42.0158 11.8125V16.1058H29.3029C28.97 16.1058 28.6872 15.9893 28.4542 15.7563C28.1879 15.5234 28.0548 15.2405 28.0548 14.9077V13.0605C28.0548 12.6945 28.1713 12.3949 28.4043 12.162C28.6372 11.929 28.9368 11.8125 29.3029 11.8125H42.0158ZM44.3359 46.7578C44.3337 46.7578 44.3315 46.7578 44.3293 46.7578H39.7365C39.3704 46.7578 39.0709 46.6413 38.8379 46.4084C38.605 46.1754 38.4885 45.8925 38.4885 45.5597V24.1931H29.3029C28.9368 24.1931 28.6372 24.0766 28.4043 23.8437C28.1713 23.6107 28.0548 23.3278 28.0548 22.995V20.2992C28.0548 19.9664 28.1713 19.6835 28.4043 19.4505C28.6372 19.2176 28.9368 19.1011 29.3029 19.1011H42.0158V46.7578H44.3359Z" fill="#546D79"/>
</g>
<defs>
<clipPath id="clip0_1320_9602">
<rect width="84" height="84" fill="white"/>
</clipPath>
</defs>
</svg>
