<svg width="84" height="84" viewBox="0 0 84 84" fill="none" xmlns="http://www.w3.org/2000/svg">
<g clip-path="url(#clip0_1320_9242)">
<path d="M66.2203 26.355V31.92C64.6103 31.64 62.9303 31.5 61.2503 31.5C55.8253 31.5 50.6803 32.97 46.3053 35.56C44.6603 36.47 43.1553 37.555 41.7553 38.78C35.4903 44.24 31.5003 52.29 31.5003 61.25C31.5003 64.295 31.9553 67.235 32.7953 70H7.28027C5.35527 70 3.78027 68.425 3.78027 66.5V26.355H66.2203Z" fill="#FFB74D"/>
<path d="M46.3052 35.5599C44.6602 36.4699 43.1552 37.5549 41.7552 38.7799H26.4952C24.9202 38.7799 23.6602 37.5199 23.6602 35.9414C23.6602 34.3699 24.9202 33.1064 26.4952 33.1064H43.5052C44.9402 33.1099 46.1302 34.1599 46.3052 35.5599Z" fill="#795548"/>
<path d="M68.25 26.3446H1.75C0.784 26.3446 0 25.5571 0 24.5946V13.1006H70V24.5946C70 25.5606 69.216 26.3446 68.25 26.3446Z" fill="#FFCC80"/>
<path d="M70 13.1005L59.5945 0H10.4055L0 13.1005H70Z" fill="#FFA726"/>
<path d="M35.0003 26.355H3.78027V66.5C3.78027 68.425 5.35527 70 7.28027 70H32.7953C31.9553 67.235 31.5003 64.295 31.5003 61.25C31.5003 56.196 32.7708 51.4325 35.0003 47.2605V38.78H26.4953C24.9203 38.78 23.6603 37.52 23.6603 35.9415C23.6603 34.37 24.9203 33.1065 26.4953 33.1065H35.0003V26.355Z" fill="#DE9F43"/>
<path d="M35.0002 33.1099H26.4952C24.9202 33.1099 23.6602 34.3699 23.6602 35.9449C23.6602 37.5199 24.9202 38.7834 26.4952 38.7834H35.0002V33.1099Z" fill="#694A3F"/>
<path d="M35 13.1006H0V24.5946C0 25.5571 0.784 26.3446 1.75 26.3446H35V13.1006Z" fill="#DEB26F"/>
<path d="M35 0H10.4055L0 13.1005H35V0Z" fill="#DE9121"/>
<path d="M61.25 84C48.706 84 38.5 73.794 38.5 61.25C38.5 48.706 48.706 38.5 61.25 38.5C73.794 38.5 84 48.706 84 61.25C84 73.794 73.794 84 61.25 84Z" fill="#4CAF50"/>
<path d="M57.7501 70.8752C57.0536 70.8752 56.3851 70.5987 55.8951 70.1052L49.7701 63.9802C48.7446 62.9547 48.7446 61.2922 49.7701 60.2667C50.7956 59.2412 52.4581 59.2412 53.4836 60.2667L57.6171 64.3967L67.1441 53.4032C68.0926 52.3112 69.7481 52.1887 70.8471 53.1372C71.9426 54.0857 72.0616 55.7447 71.1131 56.8402L59.7381 69.9652C59.2586 70.5147 58.5761 70.8437 57.8481 70.8682L57.7501 70.8752Z" fill="white"/>
<path d="M61.25 38.5C48.706 38.5 38.5 48.706 38.5 61.25C38.5 73.794 48.706 84 61.25 84V68.2185L59.7345 69.9685C59.255 70.518 58.5725 70.847 57.8445 70.8715H57.75C57.0535 70.8715 56.385 70.595 55.895 70.1015L49.77 63.9765C48.7445 62.951 48.7445 61.2885 49.77 60.263C50.281 59.752 50.953 59.493 51.625 59.493C52.297 59.493 52.969 59.7485 53.48 60.263L57.6135 64.393L61.25 60.1965V38.5Z" fill="#219653"/>
<path d="M51.6251 59.5C50.9531 59.5 50.2811 59.7555 49.7701 60.27C48.7446 61.2955 48.7446 62.958 49.7701 63.9835L55.8951 70.1085C56.3886 70.602 57.0571 70.8785 57.7501 70.8785H57.8446C58.5726 70.854 59.2551 70.525 59.7346 69.9755L61.2501 68.2255V60.207L57.6136 64.4L53.4801 60.27C52.9691 59.7555 52.2971 59.5 51.6251 59.5V59.5Z" fill="#DEDEDE"/>
</g>
<defs>
<clipPath id="clip0_1320_9242">
<rect width="84" height="84" fill="white"/>
</clipPath>
</defs>
</svg>
