<svg width="158" height="151" viewBox="0 0 158 151" fill="none" xmlns="http://www.w3.org/2000/svg">
<g opacity="0.100006">
<g opacity="0.100006">
<path opacity="0.100006" d="M157.749 132.929C157.749 142.909 122.472 151 78.9572 151C35.4424 151 0.165771 142.909 0.165771 132.929C0.165771 122.949 35.4424 114.859 78.9572 114.859C122.472 114.859 157.749 122.949 157.749 132.929Z" fill="#5E5E5E"/>
</g>
</g>
<path d="M154.012 29.3408C153.878 39.5408 153.559 50.5808 152.852 62.1142C152.094 74.4742 150.907 87.3808 149.068 100.327C145.379 126.301 139.449 128.074 124.286 134.807C105.965 142.941 52.2563 141.767 34.8019 136.834C31.7773 135.981 29.0726 135.141 26.6742 134.261C15.1756 130.074 10.3523 125.141 8.6069 114.887C6.50171 102.501 1.75836 61.6475 7.48768 25.3142C7.06131 28.2208 8.8334 31.0208 10.9519 33.0742C15.2955 37.2742 21.1714 39.4075 26.954 41.3008C27.3538 41.4342 27.7535 41.5542 28.1532 41.6875C33.3762 43.3808 38.5992 45.0742 43.8222 46.7675C46.9534 47.7942 50.1111 48.8075 53.3489 49.3942C56.3468 49.9408 59.398 50.1008 62.4492 50.2208C62.7823 50.2342 63.102 50.2475 63.4351 50.2608C83.4078 51.0608 103.462 50.3275 123.127 46.8342C129.39 45.7275 135.638 44.3275 141.527 41.9275C144.791 40.6075 147.976 38.9275 150.414 36.3942C152.28 34.4742 153.652 31.9808 154.012 29.3408" fill="#202525"/>
<g opacity="0.100006">
<g opacity="0.100006">
<path opacity="0.100006" d="M23.7834 125.94C24.5428 128.74 25.4755 131.58 26.6747 134.26C15.1761 130.074 10.3528 125.14 8.60733 114.887C6.50214 102.501 1.7588 61.6472 7.48811 25.3138C7.06175 28.2205 8.83384 31.0205 10.9524 33.0738C15.296 37.2738 21.1719 39.4072 26.9545 41.3005C24.0498 47.3538 22.7707 54.1405 21.7981 60.8338C18.6136 82.4738 18.0141 104.847 23.7834 125.94Z" fill="white"/>
</g>
</g>
<g opacity="0.100006">
<g opacity="0.100006">
<path opacity="0.100006" d="M154.012 29.3409C153.878 39.5409 153.559 50.5809 152.852 62.1143C149.508 58.5276 145.231 56.0476 140.368 55.9409C134.918 55.8209 129.922 58.6343 124.765 60.3943C122.261 61.2343 119.516 61.8476 116.998 61.0343C115.507 60.5543 114.213 59.6209 112.867 58.8609C100.85 52.0476 85.3398 58.7009 72.109 54.7676C68.9646 53.8476 66.0066 52.2876 63.4351 50.2609C83.4078 51.0609 103.462 50.3276 123.127 46.8343C129.39 45.7276 135.638 44.3276 141.527 41.9276C144.791 40.6076 147.976 38.9276 150.414 36.3943C152.28 34.4743 153.652 31.9809 154.012 29.3409" fill="white"/>
</g>
</g>
<g opacity="0.100006">
<g opacity="0.100006">
<path opacity="0.100006" d="M103.361 64.0876C102.093 64.1209 100.791 64.1609 99.617 64.6436C98.4445 65.1263 97.4079 66.1556 97.2933 67.4196C97.1667 68.8289 98.2313 70.1356 99.525 70.7089C100.817 71.2823 102.287 71.2689 103.698 71.1663C105.49 71.0369 107.324 70.7623 108.88 69.8649C110.436 68.9676 111.673 67.3289 111.642 65.5316C111.634 65.1489 111.566 64.7556 111.354 64.4383C110.978 63.8796 110.256 63.6889 109.593 63.5783C108.007 63.3169 106.387 63.2809 104.792 63.4729C103.841 63.5876 102.869 63.7956 102.089 64.3516C101.308 64.9076 100.763 65.8849 100.96 66.8223" fill="white"/>
</g>
</g>
<path d="M154.012 29.3402C153.657 31.9762 152.276 34.4749 150.413 36.3975C147.979 38.9335 144.791 40.6055 141.53 41.9335C135.639 44.3215 129.394 45.7309 123.128 46.8335C103.138 50.3815 82.7363 51.0855 62.4465 50.2269C59.4047 50.0962 56.3495 49.9389 53.3516 49.3935C50.1125 48.8135 46.9574 47.7909 43.8156 46.7695C38.5926 45.0749 33.3709 43.3789 28.1479 41.6842C21.9842 39.6909 15.606 37.5682 10.9453 33.0735C8.83343 31.0269 7.064 28.2269 7.49171 25.3095C8.04598 21.5762 14.5454 6.09088 42.9175 3.08554C47.3198 2.71888 51.7127 2.45888 56.1229 2.42421C62.8382 2.36555 69.5549 2.31888 76.2702 2.27355C81.6144 2.23221 86.972 2.19088 92.3082 2.46955C109.402 3.36155 126.314 7.49754 141.895 14.5989C147.376 17.1015 153.339 20.8735 154.048 26.8589C154.148 27.6829 154.126 28.5242 154.012 29.3402Z" fill="white"/>
<path d="M75.1333 33.1743C74.8829 33.2996 74.6457 33.4383 74.4099 33.5636C73.7983 32.4569 72.7657 31.6143 71.5705 31.2143C71.2081 31.0903 70.8324 31.0049 70.4446 30.9743C68.8164 30.8236 67.1256 31.5289 66.0757 32.7929C64.686 32.0516 63.0019 31.8636 61.4922 32.2969C61.3443 31.6343 60.866 31.0849 60.2718 30.7649C59.6908 30.4449 58.9967 30.3409 58.3611 30.5543C58.4397 29.3129 58.1319 28.0663 57.507 26.9863C57.118 26.2756 56.5704 25.6343 55.9188 25.1289C54.2773 23.8729 52.793 24.2129 50.849 24.8703C52.4479 21.3129 56.3239 18.9049 60.2318 19.0556C60.4996 19.0636 60.7927 19.0836 61.0152 18.9183C61.2791 18.7529 61.351 18.4169 61.4376 18.1089C62.1345 15.3583 64.4275 13.0649 67.1843 12.3756C67.528 12.2876 67.8744 12.2276 68.2209 12.2063C70.0143 12.0049 71.8636 12.4569 73.3919 13.4356C73.9728 13.7956 74.5031 14.2236 74.9548 14.7329C75.4931 14.3876 76.2246 14.3449 76.7922 14.6383C77.0334 14.7529 77.2652 14.9343 77.5317 14.9543C78.026 14.9969 78.3884 14.5223 78.7268 14.1676C79.8327 12.9956 81.5595 12.7423 83.1557 12.5729C83.2477 12.5583 83.3409 12.5556 83.4342 12.5396H83.4475C84.4855 12.4369 85.5221 12.3596 86.5414 12.5769C87.558 12.7796 88.5559 13.3303 89.0836 14.2263C89.1382 14.3049 89.1808 14.3836 89.2221 14.4623C89.3474 14.7129 89.4473 15.0049 89.6778 15.1596C90.0149 15.3649 90.4386 15.2223 90.8223 15.1196C91.6977 14.8996 92.6597 15.0516 93.4299 15.5276C93.6737 15.6809 93.9188 15.8636 94.2106 15.8423C94.4785 15.8369 94.6996 15.6316 94.9235 15.4663C95.7855 14.7663 96.8808 14.2876 97.9987 14.2236C98.6649 14.1676 99.3457 14.2583 99.9653 14.5249C100.934 14.9289 101.713 15.8063 102.069 16.7983C102.298 17.4863 102.328 18.2316 102.078 18.9183C103.42 18.8209 104.797 19.4969 105.528 20.6143C105.86 21.1263 106.073 21.7076 106.272 22.2769C106.401 22.6343 106.527 23.0049 106.642 23.3623C106.956 24.2623 107.272 25.2556 106.892 26.1303C106.335 27.3969 104.701 27.6476 103.434 28.1823C101.744 28.8623 100.39 30.3196 99.816 32.0396C97.9267 30.4156 94.8355 30.4463 92.9675 32.0889C92.7597 32.2809 92.5491 32.4849 92.2987 32.5836C91.9429 32.7516 91.5405 32.6943 91.1541 32.6636C90.5945 32.6089 90.0202 32.5956 89.462 32.6356C87.9564 32.7089 86.4867 33.0756 85.1144 33.7076C84.4415 34.0156 83.8099 34.3769 83.2064 34.8049C83.0465 33.0476 81.1411 31.8636 79.381 31.8636C77.8754 31.8583 76.4897 32.4769 75.1467 33.1743H75.1333Z" fill="#FF6C4D"/>
<path d="M73.3924 13.4353C67.2248 17.0833 62.9278 23.862 60.271 30.7646C59.6914 30.4446 58.9959 30.3406 58.3616 30.554C58.4389 29.3126 58.1311 28.066 57.5076 26.9873C60.0178 21.3273 63.562 15.9926 68.2201 12.206C70.0148 12.0047 71.8642 12.4566 73.3924 13.4353Z" fill="#FCF8F8"/>
<path d="M89.0833 14.2257C87.8668 14.6537 86.6783 15.1337 85.6031 15.879C83.0568 17.643 81.3047 20.283 79.8324 22.9577C78.0284 26.2403 76.3988 29.6377 75.1464 33.1737H75.1331C74.8826 33.3003 74.6467 33.439 74.4096 33.5643C73.798 32.4577 72.7654 31.615 71.5702 31.215C72.9879 27.315 74.8479 23.5377 76.9131 20.0243C78.4401 17.4017 80.2894 14.9323 82.6998 13.063C82.9356 12.871 83.1847 12.7057 83.4339 12.5403H83.4472C84.4852 12.4363 85.5218 12.359 86.5411 12.5763C87.5577 12.7803 88.5556 13.331 89.0833 14.2257Z" fill="#FCF8F8"/>
<path d="M102.069 16.7979C95.5802 19.1993 91.3312 25.7913 89.4618 32.6353C87.9562 32.7099 86.4866 33.0753 85.1142 33.7073C86.7757 25.8939 91.1553 17.9793 97.9985 14.2233C98.6647 14.1673 99.3469 14.2593 99.9651 14.5246C100.934 14.9299 101.713 15.8059 102.069 16.7979Z" fill="#FCF8F8"/>
<path d="M155.344 29.3401C156.321 17.0601 140.596 12.2001 131.485 8.95345C117.721 4.04945 103.21 1.39878 88.6108 0.98945C81.1454 0.78145 73.6639 0.956118 66.1972 1.01078C58.2467 1.06945 50.2564 0.965451 42.3406 1.81745C32.6274 2.86278 22.6237 5.71212 14.9571 12.0148C11.1211 15.1694 7.04264 19.8494 6.20589 24.9548C5.93142 26.6334 8.49896 27.3561 8.77609 25.6641C9.39166 21.8988 12.0551 18.4361 14.6866 15.8361C20.9729 9.62012 29.7281 6.54412 38.2728 5.06412C51.6687 2.74545 65.8068 3.65745 79.3546 3.58545C92.8039 3.51478 106.032 4.56012 119.092 7.94012C126.471 9.84945 133.719 12.3548 140.665 15.4988C146.512 18.1441 153.264 21.9801 152.679 29.3401C152.542 31.0508 155.208 31.0428 155.344 29.3401Z" fill="#202525"/>
<path d="M152.679 29.3402C152.481 44.3189 151.89 59.2936 150.645 74.2242C149.961 82.3882 149.094 90.5389 147.965 98.6549C147.152 104.51 146.23 110.454 144.251 116.048C141.671 123.34 136.834 127.542 130.001 130.78C122.695 134.243 115.525 136.455 107.508 137.59C87.5609 140.411 66.5263 140.19 46.5563 137.672C37.7119 136.556 28.493 134.458 20.6265 130.151C12.8266 125.879 10.5043 119.09 9.29578 110.73C5.25861 82.8122 4.46584 53.5736 8.77615 25.6642C7.90343 25.5456 7.0307 25.4269 6.15931 25.3096C5.55307 34.5349 17.0943 39.3202 24.188 41.7749C29.7734 43.7069 35.4295 45.4482 41.0509 47.2722C46.3791 49.0029 51.6261 50.7122 57.2315 51.2429C69.6388 52.4149 82.4139 52.1296 94.8412 51.4122C106.586 50.7322 118.431 49.4256 129.923 46.8442C139.491 44.6962 153.226 40.9989 155.296 29.6949C155.603 28.0176 153.036 27.2976 152.726 28.9856C151.452 35.9442 145.039 39.3002 138.95 41.4989C133.304 43.5389 127.404 44.7602 121.498 45.7709C107.779 48.1176 93.8565 49.1176 79.9463 49.2162C73.2483 49.2642 66.5237 49.1736 59.8377 48.7669C52.8679 48.3416 46.539 46.2536 39.9516 44.1149C34.0824 42.2096 28.0973 40.5042 22.3386 38.2789C16.9797 36.2082 8.37109 32.2002 8.82411 25.3096C8.92004 23.8322 6.43779 23.4602 6.20595 24.9549C2.0422 51.9162 2.68974 79.7949 6.10335 106.814C7.05069 114.319 7.76353 122.46 13.3636 128.123C19.7951 134.624 30.3943 137.53 39.1082 139.195C59.1262 143.019 80.6831 142.972 100.901 141.028C109.282 140.222 117.856 139.071 125.621 135.66C132.324 132.716 139.369 129.844 143.579 123.515C146.382 119.299 147.799 114.235 148.849 109.338C150.635 100.995 151.523 92.4176 152.401 83.9402C154.278 65.8016 155.102 47.5709 155.344 29.3402C155.367 27.6242 152.702 27.6229 152.679 29.3402Z" fill="#202525"/>
<path d="M152.716 26.8591C152.708 27.6858 152.698 28.5138 152.68 29.3404C152.637 31.0564 155.302 31.0564 155.345 29.3404C155.363 28.5138 155.373 27.6858 155.381 26.8591C155.398 25.1418 152.733 25.1404 152.716 26.8591Z" fill="#202525"/>
<path d="M10.7171 29.4392C10.9369 26.5552 13.4658 22.3179 16.9287 23.2312C17.5856 23.4059 18.425 23.0152 18.5676 22.3006C19.0312 19.9646 20.8833 18.9686 23.0391 18.4939C24.7126 18.1232 24.0051 15.5526 22.3302 15.9219C19.2564 16.6006 16.6422 18.3446 15.9974 21.5912L17.6362 20.6606C12.3692 19.2699 8.40668 24.7819 8.05226 29.4392C7.92168 31.1512 10.5878 31.1419 10.7171 29.4392Z" fill="#202525"/>
<path d="M24.5152 38.9821C24.3873 37.9354 24.7097 36.9234 25.6224 36.3248C27.0508 35.3888 25.717 33.0781 24.2767 34.0221C22.6365 35.0981 21.6079 36.9968 21.8504 38.9821C21.937 39.6968 22.4007 40.3154 23.1828 40.3154C23.8357 40.3154 24.6032 39.7021 24.5152 38.9821Z" fill="#202525"/>
<path d="M29.3054 31.8747C32.2554 29.712 35.8875 29.84 38.543 32.428C39.7728 33.6254 41.6581 31.7414 40.427 30.5414C36.9827 27.1854 31.8756 26.7027 27.961 29.572C26.5913 30.5747 27.9184 32.8907 29.3054 31.8747Z" fill="#202525"/>
<path d="M36.9258 29.8668C37.9025 28.0295 39.4627 26.6748 41.4533 26.0441C43.0828 25.5281 42.386 22.9535 40.7445 23.4735C38.1143 24.3068 35.9252 26.0761 34.6248 28.5215C33.8187 30.0348 36.1184 31.3841 36.9258 29.8668Z" fill="#202525"/>
<path d="M43.5786 9.27765C45.7757 9.11765 47.8063 10.1336 48.6777 12.2456C49.1227 13.323 50.4178 13.5616 51.1133 12.5643C51.7063 11.7123 52.3565 11.0043 53.1825 10.3816C53.505 10.119 53.8488 9.88965 54.2178 9.69498C54.9986 9.52965 55.0546 9.31498 54.3844 9.05231C55.5103 10.351 57.3876 8.45765 56.2684 7.16698C54.2032 4.78031 49.8635 9.70965 48.8123 11.219L51.2479 11.5363C49.9435 8.37631 47.0588 6.35765 43.5786 6.61098C41.8785 6.73498 41.8651 9.40165 43.5786 9.27765Z" fill="#202525"/>
<path d="M108.55 14.4177C110.478 14.015 111.36 14.827 112.815 15.823C113.336 16.179 113.877 16.5297 114.556 16.3084C115.245 16.0844 115.448 15.4737 115.845 14.9364C116.823 13.6084 118.119 12.911 119.718 12.6204C121.402 12.315 120.688 9.7457 119.011 10.0497C117.73 10.2817 116.578 10.7377 115.529 11.5137C115.011 11.8977 114.544 12.3164 114.126 12.8124C114.057 12.9017 113.986 12.9924 113.917 13.083C113.256 13.6564 113.472 13.9004 114.564 13.8164C114.762 13.379 112.032 12.075 111.806 11.999C110.489 11.547 109.192 11.5644 107.842 11.8457C106.164 12.1964 106.874 14.7684 108.55 14.4177Z" fill="#202525"/>
<path d="M127.221 11.492C124.528 11.7347 122.223 14.1347 122.548 16.936C123.11 16.508 123.674 16.0787 124.236 15.6507C124.073 15.6 123.912 15.5493 123.75 15.4987C122.108 14.9867 121.407 17.56 123.041 18.0707C123.202 18.1213 123.365 18.1707 123.527 18.2213C124.281 18.4573 125.313 17.7947 125.213 16.936C125.067 15.6853 125.856 14.2813 127.221 14.1587C127.937 14.0947 128.553 13.592 128.553 12.8253C128.553 12.1533 127.941 11.4267 127.221 11.492" fill="#202525"/>
<path d="M138.902 24.1579C140.974 23.6219 142.734 24.6179 143.586 26.5379C144.019 27.5166 145.393 27.2886 145.886 26.5379C147.251 24.4619 149.171 23.2592 151.598 22.7872C153.279 22.4619 152.568 19.8899 150.889 20.2166C147.78 20.8206 145.319 22.5526 143.586 25.1912H145.886C144.56 22.1992 141.317 20.7792 138.194 21.5859C136.535 22.0152 137.238 24.5886 138.902 24.1579Z" fill="#202525"/>
<path d="M121.429 38.7972C121.974 37.6706 122.724 36.7399 123.821 36.1066C124.977 35.4372 126.108 35.6332 127.32 35.3066C128.108 35.0946 128.32 34.7479 128.649 34.0026C129.289 32.5506 129.673 31.5692 131.363 31.0252C132.99 30.5026 132.293 27.9279 130.656 28.4546C129.449 28.8426 128.395 29.4332 127.546 30.3919C127.113 30.8812 126.851 31.4306 126.539 31.9906C126.058 32.8532 126.255 32.5759 125.301 32.8239C122.551 33.5346 120.412 34.8012 119.127 37.4519C118.383 38.9892 120.68 40.3426 121.429 38.7972Z" fill="#202525"/>
<path d="M84.1512 43.027C86.1285 41.5043 88.6507 41.0416 90.9677 42.1136C92.5133 42.8296 93.867 40.5323 92.3121 39.811C89.1876 38.3643 85.5742 38.5923 82.8054 40.7243C81.4664 41.7563 82.7908 44.075 84.1512 43.027Z" fill="#202525"/>
<path d="M49.5511 27.0622C50.6996 26.6422 52.2692 25.9022 53.5163 25.9515C56.7234 26.0782 57.1631 28.9302 57.0818 31.4235C57.0538 32.2689 57.9585 32.9675 58.7686 32.7102C59.3709 33.0595 59.9731 33.4089 60.5754 33.7569C60.7526 34.5475 61.8438 35.0409 62.5327 34.5542C63.6239 33.5662 64.8737 33.4609 66.282 34.2369C66.7524 34.4889 67.5292 34.4969 67.8969 34.0289C69.1547 32.4262 71.8168 32.4555 72.8574 34.2795C73.7062 35.7702 76.0099 34.4275 75.1571 32.9342C73.1239 29.3675 68.5924 28.8569 66.0116 32.1435C66.5498 32.0729 67.0895 32.0035 67.6264 31.9342C65.4373 30.7635 63.2508 30.7929 61.1869 32.2515C61.8398 32.5169 62.4927 32.7835 63.1442 33.0489C62.6019 30.6355 60.4155 29.3902 58.0598 30.1382C58.6221 30.5662 59.1843 30.9955 59.7466 31.4235C59.8306 28.8275 59.1204 25.3542 56.7807 23.7822C54.5609 22.2915 51.0567 23.6795 48.8423 24.4902C47.246 25.0755 47.9349 27.6542 49.5511 27.0622Z" fill="#202525"/>
<path d="M74.6064 37.6834C74.3599 36.8154 75.8295 34.83 76.3332 34.2074C77.086 33.2714 78.1999 32.4967 79.4523 32.762C81.1258 33.1154 81.84 30.5447 80.1598 30.19C77.9867 29.73 75.8988 30.6047 74.4745 32.2834C73.2114 33.77 71.4619 36.3647 72.0362 38.3927C72.5039 40.0407 75.0754 39.3407 74.6064 37.6834Z" fill="#202525"/>
<path d="M84.6937 36.4665C86.0821 34.1412 88.6056 33.0999 91.2424 33.6105C91.8633 33.7305 92.427 34.0412 93.0638 33.7839C94.2204 33.3159 94.4602 31.9305 95.8166 31.5105C97.4501 31.0052 96.7519 28.4305 95.1077 28.9385C93.4316 29.4585 92.6934 30.3492 91.6075 31.6225C92.0406 31.5079 92.4723 31.3932 92.9053 31.2799C90.7668 30.9825 89.0653 30.5332 86.9241 31.3092C84.9748 32.0159 83.4479 33.3545 82.3927 35.1199C81.5106 36.5972 83.813 37.9385 84.6937 36.4665Z" fill="#202525"/>
<path d="M107.617 26.8824C105.957 24.2944 110.588 21.5344 112.701 21.6077V18.9411L112.246 18.9397C110.531 18.9304 110.53 21.5971 112.246 21.6064L112.701 21.6077C114.42 21.6184 114.414 19.0024 112.701 18.9411C108.554 18.7971 102.477 23.8011 105.316 28.2277C106.241 29.6677 108.547 28.3317 107.617 26.8824Z" fill="#202525"/>
<path d="M108.259 22.5868C108.011 20.5948 107.274 18.9482 105.549 17.7788C104.892 17.3335 104.052 16.9402 103.254 16.8495C101.459 16.6468 103.238 18.0402 102.629 16.1495C101.526 12.7268 95.5049 12.1428 93.0173 14.0215H94.3617C90.9255 11.7508 86.887 13.3642 85.7518 17.2628C85.2734 18.9148 87.8436 19.6188 88.322 17.9722C88.9322 15.8748 91.2666 15.1682 93.0173 16.3242C93.3744 16.5602 94.0086 16.5908 94.3617 16.3242C96.6215 14.6188 98.8079 16.1122 100.204 17.9442C100.403 18.2055 100.238 18.6282 100.595 18.8868C102.477 20.2508 105.175 19.2015 105.594 22.5868C105.8 24.2682 108.468 24.2882 108.259 22.5868Z" fill="#202525"/>
<path d="M89.9499 14.027C86.0753 10.1737 80.6178 10.1404 76.522 13.683H78.406C77.0949 12.1217 75.9464 12.3444 74.137 12.3604C73.0657 12.3684 73.4455 12.483 72.3289 11.731C71.3736 11.0857 70.353 10.6377 69.2031 10.4577C64.7755 9.76036 61.4965 13.1417 61.0048 17.3084C60.8037 19.0084 63.4711 18.995 63.6696 17.3084C63.9348 15.0657 65.5683 13.1684 67.8867 13.027C69.7747 12.9137 70.5515 14.2937 72.0238 14.971C72.8472 15.351 76.3368 15.3484 76.522 15.5684C77.0096 16.147 77.901 16.0057 78.406 15.5684C81.4385 12.9457 85.2718 13.135 88.0659 15.9124C89.2837 17.123 91.169 15.239 89.9499 14.027Z" fill="#202525"/>
<path d="M56.8961 21.6078C57.8208 20.9171 58.8267 20.4971 59.9873 20.4438C61.6954 20.3651 61.7047 17.6985 59.9873 17.7771C58.383 17.8505 56.8441 18.3398 55.5517 19.3051C54.9748 19.7345 54.6803 20.4585 55.0734 21.1291C55.4051 21.6971 56.3152 22.0398 56.8961 21.6078Z" fill="#202525"/>
<path d="M37.2693 84.275H37.284H37.2693ZM32.6526 92.6897C31.7412 92.6897 30.8525 92.247 30.3115 91.4417C29.4974 90.2337 29.7399 88.603 30.8685 87.6817L36.2301 83.303C33.5519 80.867 30.6606 78.643 27.6201 76.687C26.3103 75.8444 25.9306 74.099 26.774 72.7884C27.6148 71.4764 29.3602 71.0964 30.67 71.9417C34.35 74.3097 37.8303 77.0364 41.0147 80.0484C41.3705 80.3857 42.0287 81.0097 42.3644 82.0137C42.7148 83.0564 42.92 85.127 40.3392 87.2324L36.1061 90.687C35.8557 91.147 35.4746 91.5417 34.9816 91.8097L34.0023 92.3444C33.5746 92.5777 33.1109 92.6897 32.6526 92.6897Z" fill="white"/>
<path d="M130.213 90.059C129.804 90.059 129.391 89.9696 128.997 89.7803C126.183 88.419 123.433 86.8496 120.828 85.1163C119.116 83.979 118.823 82.6123 118.88 81.6656C118.965 80.323 119.785 79.479 120.092 79.1616C122.793 76.387 125.591 73.6336 128.41 70.9816C129.538 69.9216 131.308 69.9763 132.366 71.1043C133.426 72.231 133.371 74.003 132.244 75.0616C130.005 77.1696 127.78 79.3376 125.611 81.5323C127.51 82.711 129.454 83.7803 131.432 84.735C132.823 85.4083 133.406 87.083 132.734 88.4763C132.252 89.4763 131.253 90.059 130.213 90.059Z" fill="white"/>
<path d="M29.1884 75.8923C31.7452 77.5656 34.7978 79.387 36.839 81.6963C37.3346 82.2563 38.1741 83.0256 37.8156 83.9403C37.6531 84.3563 36.5752 84.9523 36.2194 85.243C34.891 86.3283 33.5613 87.4123 32.2329 88.4976C31.0244 89.4843 32.566 91.2896 33.8478 90.5923C34.1569 90.423 34.466 90.2536 34.7764 90.0856C36.2834 89.2643 34.939 86.9616 33.4307 87.783C33.1216 87.9523 32.8111 88.1203 32.502 88.2896C33.0403 88.987 33.5786 89.6856 34.1169 90.383C36.0875 88.775 38.7043 87.2176 40.3152 85.2456C41.0374 84.3616 41.4504 83.3123 40.9788 82.1923C40.2752 80.5176 37.8196 78.9883 36.4459 77.879C34.5486 76.3456 32.574 74.9256 30.5341 73.5896C29.0938 72.647 27.7574 74.955 29.1884 75.8923Z" fill="#202525"/>
<path d="M129.179 72.4196C127.241 74.2489 125.325 76.1023 123.445 77.9889C122.543 78.8956 120.689 80.1343 120.573 81.5729C120.46 82.9649 121.672 83.6703 122.677 84.3329C124.805 85.7343 127.056 86.9449 129.34 88.0689C130.872 88.8249 132.225 86.5263 130.684 85.7663C129.256 85.0623 127.845 84.3263 126.467 83.5263C125.798 83.1383 125.135 82.5689 124.426 82.2849C123.344 81.8529 123.087 82.4396 123.926 81.2969C125.814 78.7249 128.746 76.4929 131.063 74.3049C132.313 73.1249 130.426 71.2409 129.179 72.4196Z" fill="#202525"/>
<path d="M75.2213 92.7385C75.7822 95.9425 78.5443 98.4385 81.854 98.3772C84.7359 98.3225 88.2628 96.0119 87.8564 92.7892C87.6446 91.1092 84.9771 91.0879 85.1916 92.7892C85.4394 94.7625 82.9865 95.8825 81.2997 95.6972C79.3237 95.4812 78.1126 93.8679 77.7915 92.0292C77.4957 90.3425 74.9268 91.0572 75.2213 92.7385Z" fill="white"/>
<path d="M45.4901 42.5934C48.115 40.704 51.851 41.5694 53.318 44.4774C54.0908 46.0107 56.3905 44.6614 55.619 43.132C53.5458 39.0214 47.8951 37.592 44.1444 40.2907C42.7654 41.284 44.0938 43.5974 45.4901 42.5934Z" fill="#D9D9D9"/>
<path d="M102.604 38.3284C104.645 38.7458 106.31 39.9044 107.358 41.7164C108.217 43.2004 110.519 41.8591 109.659 40.3698C108.29 38.0004 105.999 36.3071 103.311 35.7564C101.638 35.4138 100.922 37.9831 102.604 38.3284Z" fill="#D9D9D9"/>
<path d="M106.933 39.4086C108.353 37.6472 110.081 35.4486 112.555 35.4619C114.27 35.4712 114.273 32.8046 112.555 32.7952C109.29 32.7766 106.965 35.1472 105.049 37.5232C103.981 38.8472 105.855 40.7446 106.933 39.4086Z" fill="#D9D9D9"/>
<path d="M66.1436 8.4436C68.5486 8.0156 70.891 8.28227 73.1787 9.11293C74.7936 9.6996 75.4891 7.1236 73.8875 6.54227C71.1361 5.54227 68.3088 5.36093 65.4348 5.8716C63.7506 6.1716 64.4635 8.74227 66.1436 8.4436Z" fill="#D9D9D9"/>
<path d="M29.5176 22.1293C28.9819 19.8213 32.4568 19.204 33.9891 18.9106C35.6733 18.5893 34.9591 16.0186 33.2816 16.34C31.5535 16.6706 29.7894 17.0906 28.4437 18.296C27.1539 19.4533 26.5556 21.148 26.9474 22.8386C27.3351 24.5093 29.9053 23.8013 29.5176 22.1293Z" fill="#D9D9D9"/>
</svg>
